<svg width="132" height="132" viewBox="0 0 132 132" fill="none" xmlns="http://www.w3.org/2000/svg">
    <circle cx="66" cy="66" r="66" fill="white"/>
    <path d="M68.5745 53.7528C70.2229 56.235 73.3712 58.4049 76.5603 58.4049C81.6467 58.4049 85.7713 54.2728 85.7713 49.2025C85.7713 44.1329 81.6345 40 76.5603 40C73.3591 40 70.5515 41.6504 68.9028 44.1447L68.4237 44.8696" stroke="#F0AB00" stroke-width="2" stroke-linecap="round" stroke-linejoin="round"/>
    <path d="M96.0657 91.9569C87.7297 88.8199 76.8521 87.3114 66.0069 87.3114C65.2751 87.3114 64.5431 87.3185 63.8117 87.3326M35.9343 92C39.8665 90.5202 44.3673 89.3932 49.1636 88.6155M49.1636 88.6155L54.124 82.0489M49.1636 88.6155C53.8491 87.8557 58.8167 87.4292 63.8117 87.3326M54.124 82.0489L44.1317 70.952M54.124 82.0489L62.5648 82.0329M62.5648 82.0329L56.5527 56.6036M62.5648 82.0329L80.2378 82.02L85.2614 89.008M62.5648 82.0329L63.8117 87.3326M56.5527 56.6036L39.2171 60.6956C38.366 57.0185 39.6431 52.5482 41.9242 49.6144C43.9049 47.0766 46.3402 45.2975 49.8646 43.7168C51.2442 43.098 53.5184 42.436 53.5184 42.436M56.5527 56.6036L63.8847 54.8105M49.1912 58.2887C48.469 48.3269 53.5184 42.436 53.5184 42.436M53.5184 42.436C53.5184 42.436 55.8087 42.0795 57.288 42.0567C61.4474 41.9925 64.7706 42.7578 67.6711 44.4345L68.4237 44.8696L69.1466 45.3836C71.5504 47.1697 73.9509 49.5968 73.9509 52.4386L68.5745 53.7528L63.8847 54.8105M53.5184 42.436C53.5184 42.436 62.0687 48.0679 63.8847 54.8105" stroke="black" stroke-width="2" stroke-linecap="round" stroke-linejoin="round"/>
    <path d="M51.8353 73.574L56.0431 78.6234" stroke="black" stroke-width="2" stroke-linecap="round"/>
</svg>
