<svg width="132" height="132" viewBox="0 0 132 132" fill="none" xmlns="http://www.w3.org/2000/svg">
    <circle cx="66" cy="66" r="66" fill="white"/>
    <path d="M83.7557 66.1C82.3818 64.9302 79.7068 63.1195 74.8771 61.3073C72.702 60.4924 73.3951 58.1844 73.8622 57.2489C74.8771 55.2189 76.9057 53.1904 76.9057 48.117C76.9057 44.0585 74.8771 40 69.8037 40C64.7303 40 62.7017 44.0585 62.7017 48.117C62.7017 53.1904 64.7303 55.2189 65.7452 57.2489C66.2192 58.1981 66.8862 60.5773 64.7289 61.3703C56.6133 64.3522 54.5848 67.3957 54.5848 67.3957V70.4392" stroke="#F0AB00" stroke-width="2" stroke-miterlimit="10"/>
    <path d="M52.048 75.5126L59.6582 70.4392H64.7316C66 70.4392 68.5354 71.7076 68.5354 71.7076H74.5594C78.6822 71.7076 78.3645 78.0494 74.5594 78.0494H65.9986" stroke="black" stroke-width="2" stroke-miterlimit="10"/>
    <path d="M57.1215 86.9265L59.6582 85.6582H74.8771L85.024 79.3164L88.8291 72.9746L90.0975 67.9011C90.0975 67.9011 85.539 65.7219 83.7557 71.7062L81.2189 74.2429L77.4139 75.5113" stroke="black" stroke-width="2" stroke-miterlimit="10"/>
    <path d="M41.9025 78.0494L48.2443 75.5127L54.5848 89.4633L50.7797 92" stroke="black" stroke-width="2" stroke-miterlimit="10"/>
</svg>
