<svg width="132" height="132" viewBox="0 0 132 132" fill="none" xmlns="http://www.w3.org/2000/svg">
    <circle cx="66" cy="66" r="66" fill="white"/>
    <path d="M73.6984 40C72.9159 40 72.1386 40.1233 71.3882 40.3645L68.4563 41.3131C67.6523 41.5704 66.8268 41.7044 65.996 41.7044C65.1652 41.7044 64.3398 41.5704 63.5357 41.3131L60.6038 40.3645C59.8587 40.1233 59.0815 40 58.299 40C55.501 40 52.9657 41.5597 51.6846 44.0627L50.2857 46.8068C49.5138 48.3129 48.3132 49.5135 46.807 50.2853L44.068 51.6842C40.7876 53.3564 39.2332 57.1082 40.3696 60.6081L41.3183 63.5399C41.8382 65.1478 41.8382 66.8468 41.3183 68.4601L40.3696 71.3919C39.2386 74.8918 40.793 78.6436 44.068 80.3158L46.8124 81.7147C48.3185 82.4811 49.5192 83.6871 50.291 85.1932L51.69 87.9373C52.9711 90.4457 55.5064 92 58.3043 92C59.0869 92 59.8641 91.8767 60.6145 91.6355L63.5411 90.6869C64.3451 90.4296 65.1706 90.2956 66.0014 90.2956C66.8322 90.2956 67.6576 90.4296 68.4616 90.6869L71.3936 91.6355C72.144 91.8767 72.9212 92 73.7038 92C76.5017 92 79.0371 90.4403 80.3181 87.9373L81.7171 85.1932C82.4889 83.6871 83.6896 82.4865 85.1958 81.7147L87.9348 80.3158C91.2098 78.6436 92.7642 74.8864 91.6332 71.3919L90.6845 68.4601C90.1645 66.8522 90.1645 65.1532 90.6845 63.5399L91.6332 60.6081C92.7642 57.1082 91.2098 53.3564 87.9348 51.6842L85.1904 50.2853C83.6842 49.5189 82.4836 48.3129 81.7117 46.8068L80.3127 44.0627C79.037 41.5597 76.5017 40 73.6984 40Z" stroke="black" stroke-width="2"/>
    <path d="M55.3149 69.0808H68.8243C70.6362 69.0808 72.1302 68.751 73.3064 68.0914C74.4826 67.4318 75.3568 66.5536 75.9289 65.4569C76.5011 64.3602 76.7872 63.1523 76.7872 61.8331C76.7872 60.5139 76.5011 59.3059 75.9289 58.2092C75.3568 57.1125 74.4826 56.2343 73.3064 55.5747C72.1302 54.9151 70.6362 54.5853 68.8243 54.5853H62.5156V80.189M69.7474 73.7891H55.3149" stroke="#F0AB00" stroke-width="2"/>
</svg>
