<svg width="51" height="54" viewBox="0 0 51 54" fill="none" xmlns="http://www.w3.org/2000/svg">
    <path d="M42.7156 27.1C41.3417 25.9302 38.6667 24.1195 33.8371 22.3073C31.6619 21.4924 32.355 19.1844 32.8221 18.2489C33.8371 16.2189 35.8656 14.1904 35.8656 9.11695C35.8656 5.05848 33.8371 1 28.7636 1C23.6902 1 21.6616 5.05848 21.6616 9.11695C21.6616 14.1904 23.6902 16.2189 24.7051 18.2489C25.1791 19.1981 25.8461 21.5773 23.6888 22.3703C15.5732 25.3522 13.5447 28.3957 13.5447 28.3957V31.4392" stroke="#F0AB00" stroke-width="2" stroke-miterlimit="10"/>
    <path d="M11.008 36.5126L18.6181 31.4392H23.6916C24.9599 31.4392 27.4953 32.7076 27.4953 32.7076H33.5193C37.6421 32.7076 37.3244 39.0494 33.5193 39.0494H24.9585" stroke="#033870" stroke-width="2" stroke-miterlimit="10"/>
    <path d="M16.0814 47.9265L18.6181 46.6582H33.8371L43.9839 40.3164L47.789 33.9746L49.0574 28.9011C49.0574 28.9011 44.499 26.7219 42.7156 32.7062L40.1789 35.2429L36.3738 36.5113" stroke="#033870" stroke-width="2" stroke-miterlimit="10"/>
    <path d="M0.862457 39.0494L7.20425 36.5127L13.5447 50.4633L9.7396 53" stroke="#033870" stroke-width="2" stroke-miterlimit="10"/>
</svg>
